<svg fill="none" height="24" viewBox="0 0 24 24" width="24" xmlns="http://www.w3.org/2000/svg"><g fill="#0f0f0f"><path d="m4.8 1.40006c-.25826-.34434-.70789-.484793-1.11623-.34868-.40834.13612-.68377.51825-.68377.94868v8.00004c0 .5522.44772 1 1 1s1-.4478 1-1v-5.00004l4.2 5.60004c.25826.3443.70789.4848 1.1162.3486.4084-.1361.6838-.5182.6838-.9486v-8.00004c0-.55228-.4477-1-1-1-.55228 0-1 .44772-1 1v5z"/><path d="m15 1.00006c-1.1046 0-2 .89543-2 2v2c0 1.10457.8954 2 2 2h4v2h-5c-.5523 0-1 .44772-1 1.00004 0 .5522.4477 1 1 1h5c1.1046 0 2-.8955 2-2.00004v-2c0-1.10457-.8954-2-2-2h-4v-2h5c.5523 0 1-.44771 1-1 0-.55228-.4477-1-1-1z"/><path d="m3 14.0001c0-.5523.44772-1 1-1h6c.5523 0 1 .4477 1 1s-.4477 1-1 1h-5v2h5c.5523 0 1 .4477 1 1 0 .5522-.4477 1-1 1h-5v3c0 .5522-.44772 1-1 1s-1-.4478-1-1z"/><path d="m15 14.0001c0-.5523-.4477-1-1-1s-1 .4477-1 1v8c0 .4494.2999.8437.7331.9637.4331.12.8931-.0638 1.1244-.4492l2.1425-3.5709 2.1425 3.5709c.2313.3854.6913.5692 1.1244.4492.4332-.12.7331-.5143.7331-.9637v-8c0-.5523-.4477-1-1-1s-1 .4477-1 1v4.3896l-1.1425-1.9041c-.1807-.3012-.5062-.4855-.8575-.4855s-.6768.1843-.8575.4855l-1.1425 1.9041z"/></g></svg>